<?xml version="1.0" encoding="UTF-8"?>
<svg id="a" data-name="Layer 1" xmlns="http://www.w3.org/2000/svg" viewBox="0 0 120 120">
  <defs>
    <style>
      .b {
        fill: #1d1d1b;
      }
    </style>
  </defs>
  <path class="b" d="M32.15,92.9c-2.23,0-4.46-.85-6.15-2.54-3.39-3.39-3.39-8.91,0-12.31,3.39-3.39,8.91-3.39,12.31,0,3.39,3.39,3.39,8.91,0,12.31-1.7,1.7-3.92,2.54-6.15,2.54Zm0-13.92c-1.34,0-2.67,.51-3.69,1.53-2.04,2.04-2.04,5.35,0,7.38,2.04,2.04,5.35,2.04,7.38,0,2.04-2.04,2.04-5.35,0-7.38-1.02-1.02-2.36-1.53-3.69-1.53Z"/>
  <path class="b" d="M48.39,92.9c-2.82,0-5.65-1.07-7.79-3.22-4.3-4.3-4.3-11.29,0-15.59,2.08-2.08,4.85-3.23,7.79-3.23s5.71,1.15,7.79,3.23c4.3,4.3,4.3,11.29,0,15.59h0c-2.15,2.15-4.97,3.22-7.79,3.22Zm0-18.56c-2.01,0-3.91,.78-5.33,2.21-2.94,2.94-2.94,7.73,0,10.67,2.94,2.94,7.73,2.94,10.67,0,2.94-2.94,2.94-7.73,0-10.67-1.42-1.42-3.32-2.21-5.33-2.21Zm6.56,14.11h0Z"/>
  <path class="b" d="M69.28,92.9c-3.42,0-6.83-1.3-9.44-3.9-5.2-5.2-5.2-13.67,0-18.87,5.2-5.2,13.67-5.2,18.87,0s5.2,13.67,0,18.87h0c-2.6,2.6-6.02,3.9-9.44,3.9Zm0-23.2c-2.53,0-5.05,.96-6.97,2.88-3.84,3.85-3.84,10.1,0,13.95,3.85,3.84,10.1,3.85,13.95,0,3.84-3.85,3.84-10.1,0-13.95-1.92-1.92-4.45-2.88-6.97-2.88Zm8.21,18.06h0Z"/>
  <path class="b" d="M27.23,81.02c-.45,0-.89-.17-1.23-.51-.68-.68-.68-1.78,0-2.46L83.73,20.31c.68-.68,1.78-.68,2.46,0s.68,1.78,0,2.46L28.46,80.51c-.34,.34-.79,.51-1.23,.51Z"/>
  <path class="b" d="M41.83,77.06c-.45,0-.89-.17-1.23-.51-.68-.68-.68-1.78,0-2.46L93.58,21.11c.68-.68,1.78-.68,2.46,0s.68,1.78,0,2.46l-52.98,52.98c-.34,.34-.79,.51-1.23,.51Z"/>
  <path class="b" d="M61.08,73.09c-.45,0-.89-.17-1.23-.51-.68-.68-.68-1.78,0-2.46l33.73-33.73c.68-.68,1.78-.68,2.46,0,.68,.68,.68,1.78,0,2.46l-33.73,33.73c-.34,.34-.79,.51-1.23,.51Z"/>
  <path class="b" d="M77.49,89.5c-.45,0-.89-.17-1.23-.51-.68-.68-.68-1.78,0-2.46l17.32-17.32c.68-.68,1.78-.68,2.46,0s.68,1.78,0,2.46l-17.32,17.32c-.34,.34-.79,.51-1.23,.51Z"/>
</svg>